
<svg xmlns="http://www.w3.org/2000/svg" xml:space="preserve" version="1.1" style="shape-rendering:geometricPrecision; text-rendering:geometricPrecision; image-rendering:optimizeQuality; fill-rule:evenodd; clip-rule:evenodd"
viewBox="0 0 742.22 1949.81"
 xmlns:xlink="http://www.w3.org/1999/xlink">
 <defs>
  <style type="text/css">
   <![CDATA[
    .fil7 {fill:none}
    .fil3 {fill:#00405E}
    .fil5 {fill:#E6E6E6}
    .fil8 {fill:#F6B430}
    .fil2 {fill:#FBAE30}
    .fil0 {fill:white}
    .fil6 {fill:#999999;fill-rule:nonzero}
    .fil4 {fill:url(#id1)}
    .fil1 {fill:url(#id2)}
   ]]>
  </style>
    <clipPath id="id0">
     <path d="M296.84 156.83l128.17 0 0 -128.17 -128.17 0 0 128.17z"/>
    </clipPath>
  <linearGradient id="id1" gradientUnits="userSpaceOnUse" x1="492.62" y1="35.01" x2="229.62" y2="-60.49">
   <stop offset="0" style="stop-opacity:1; stop-color:#2367CD"/>
   <stop offset="1" style="stop-opacity:1; stop-color:#4AB6E8"/>
  </linearGradient>
  <linearGradient id="id2" gradientUnits="userSpaceOnUse" x1="417.67" y1="2079.62" x2="356.22" y2="1343.59">
   <stop offset="0" style="stop-opacity:1; stop-color:#355EA6"/>
   <stop offset="1" style="stop-opacity:1; stop-color:#57B4E5"/>
  </linearGradient>
 </defs>
 <g id="Layer_x0020_1">
  <metadata id="CorelCorpID_0Corel-Layer"/>
  <path class="fil0" d="M26.08 1295.95c6.9,4.14 34.74,12.2 44.32,15.35l131.26 43.3 -9.03 -2.98c24.8,-11.8 52.1,-24.71 78.75,-37.31l-0.45 -0.13c4.33,-4.26 76.52,-37.36 88.48,-42.95 14.82,-6.93 30.02,-14.08 44.83,-21 26.58,-12.42 21.04,-7.67 47.14,0.82 28.59,-13.51 58.75,-27.76 86.42,-40.9l-1.62 -0.52c-60.86,-19.16 -121.07,-40.38 -181.75,-60.1 -11.8,-3.83 -10.86,-5.98 -22.15,-0.41 -42.37,20.92 -300.15,141.05 -306.21,146.81z"/>
  <g id="_1647533933024" class="kotak-suara">
   <path class="fil1" d="M-0 1296.55l0 520.08 402.17 133.19 2.15 0 337.9 -161.35 0 -519.94c-33.71,-9.79 -67.66,-22.24 -101.49,-33.36l-300.13 -100 -3.2 0 -84.84 41.39c-27.99,13 -56.18,26.44 -83.9,40.1l-168.66 79.89zm26.08 -0.6c6.9,4.14 34.74,12.2 44.32,15.35l125.35 41.35 192.26 63.43c19.08,6.24 13.34,3.97 42.39,-9.49l122.29 -58.31c39.93,-19.86 84.22,-38.8 122.39,-58.25 12.56,-6.41 29.88,-12.64 41.03,-20.12 -4.97,-4.01 -160.26,-53.97 -178.31,-59.75l-1.62 -0.52c-60.86,-19.16 -121.07,-40.38 -181.75,-60.1 -11.8,-3.83 -10.86,-5.98 -22.15,-0.41 -42.37,20.92 -300.15,141.05 -306.21,146.81zm245.3 18.36l-0.45 -0.13c4.33,-4.26 76.52,-37.36 88.48,-42.95 14.82,-6.93 30.02,-14.08 44.83,-21 26.58,-12.42 21.04,-7.67 47.14,0.82l1.62 0.52c-6.48,5.76 -111.12,52.72 -133.95,63.49 -8.92,4.21 -13.43,9.12 -23.18,6.48 -8.22,-2.23 -16.3,-4.94 -24.5,-7.24z"/>
   <path class="fil0" d="M15.03 1799.74c2.76,5.04 11.47,6.04 21.45,9.38 7.4,2.47 15.6,5.35 22.97,7.76 35.53,11.57 316.85,105.73 328.78,107.95l0.25 -480.29 -373.33 -123.38 -0.13 478.58z"/>
   <path class="fil0" d="M414.91 1444.48l0.01 481.66 315.15 -149.69 0.61 -484.15c-8.21,2.21 -145.99,68.99 -158.94,75.02l-118.08 56.4c-6.95,3.22 -13.13,5.93 -19.79,9.3 -6.08,3.08 -16.45,5.43 -18.96,11.46z"/>
   <g>
    <path class="fil2" d="M133.05 1532.77c-10.96,4.95 -10.61,30.74 -6.31,43.74 3.04,9.19 17.05,25.34 31.16,18.35 9.35,-4.63 8.72,-31.2 5.26,-42.55 -2.94,-9.65 -17.28,-25.33 -30.11,-19.54zm-0.06 21.97c0,13.5 -1.63,35.21 19.99,31.86 4.81,-7.62 3.53,-12.73 3.53,-24.2 0,-22.78 -23.53,-32.13 -23.53,-7.65z"/>
    <path class="fil2" d="M234.22 1707.01l0.07 -24.92c14.43,3.51 11.65,3.51 16.83,16.46 4.51,11.29 3.44,16.93 15.54,19.95l-11.48 -29.01c4.28,-3.49 9.49,-3.62 9.89,-13.77 0.86,-21.43 -20.64,-26.2 -38.24,-31.68l-0.71 51.72c-0.05,10.39 -1.37,9.07 8.09,11.25zm0.15 -33.26c7.06,2.3 14.37,6.45 20.32,4.12 8.58,-14.5 -8.72,-20.12 -20.47,-22.73l0.15 18.61z"/>
    <path class="fil2" d="M215.78 1619.53c3.31,-3.23 3.57,-7.37 6.12,-10.73 42.69,10.3 11.68,20.11 34.43,24.6 -2.24,-11.86 -12.09,-40.39 -16.43,-55.3 -2.92,-10.03 -1.25,-12.16 -10.79,-14.18l-16.62 42.69c-4.04,9.76 -6.28,9.99 3.28,12.92zm8.41 -19.05l16.41 6.43 -7.37 -28.67 -9.04 22.25z"/>
    <path class="fil2" d="M169.68 1684.93l7.76 1.95 4.65 -10.89c42.64,10.46 11.94,17.51 34.71,25.14 -0.18,-6.78 -7.86,-28.02 -10.29,-36.06 -5.21,-17.29 -6.21,-30.65 -15.22,-33.61 -3.25,2.68 -1.58,0.68 -3.66,5.37 -1.06,2.4 -1.71,4.65 -2.48,6.7 -4.13,10.94 -13.63,32.58 -15.46,41.4zm15.2 -17.05l16.84 6.5 -8.06 -29.21 -8.78 22.71z"/>
    <path class="fil2" d="M271.07 1719.93l7.37 3.17 4.97 -10.84c3.82,0.45 18.92,5.04 21.64,7.36 7.94,6.77 -2.08,14.21 13.77,17.29l-16.35 -54.53c-2.82,-9.16 -1.09,-12.99 -10.17,-14.76l-21.22 52.32zm15.53 -15.54l16.64 5.93 -7.56 -28.29c-3.09,1.94 -8.3,19.3 -9.08,22.35z"/>
    <path class="fil2" d="M273.49 1639.12c0,-12.87 0.22,-21.08 10,-24.91 2.22,7.2 6.11,13.81 9.36,21.14 5.01,11.29 2.78,13.5 15.05,16.43l-19.32 -43.28c4.8,-6.71 13.82,-11.05 17.05,-17.99 -17.5,-6.07 -12.79,6 -31.86,19.31 -2.06,-29.86 5.22,-30.1 -8.21,-32.92 -0.01,11.5 -0.01,23 -0.01,34.51 0,5.64 -0.18,11.39 -0.17,16.99 0.03,9.6 -1.42,9.72 8.1,10.73z"/>
    <path class="fil2" d="M85.06 1572.55c0.38,-16.81 -1.95,-17.99 9.47,-25.09 3.73,7.05 6.24,13.58 9.77,20.8 5.4,11.02 2.69,13.69 15.3,16.92 -3.12,-13.26 -16.74,-31.44 -18.76,-44.22 5.24,-4.64 12.18,-11.87 16.52,-16.63l-8.59 -3.43c-8.36,6.87 -13.81,17.4 -23.5,21.97l-0.22 -30.17 -7.69 -2.43 -0.31 53.81c0.26,7.49 0.63,7.62 8.01,8.48z"/>
    <path class="fil2" d="M162.7 1621.45l-6.65 -2.29c-0.75,13.97 3.03,38.5 -3.6,48.26 -14.82,3.78 -20.55,-8.63 -20.6,-22.25 -0.03,-7.14 -0.03,-14.41 0.09,-21.55 0.18,-11.51 2.69,-13.9 -7.96,-15.47 0,26.9 -5.74,55.44 16.44,66.42 13.75,6.8 22.36,2.1 23.25,-12.58 0.64,-10.66 1.96,-32.2 -0.97,-40.53z"/>
    <path class="fil2" d="M78.23 1640.29c-10.18,6.09 9.92,15.87 13.38,17.26 10.3,4.16 23.17,4.64 23.34,-9.38 0.34,-27.11 -35.89,-19.96 -29.39,-43.04 14.3,-3.63 16.39,5.73 24.76,9.2 3.91,-5.34 2.74,-7.94 -7.4,-14.04 -27.78,-16.72 -34.2,12.08 -17.75,25.42 6.19,5.02 25.25,11.15 21.52,21.92 -2.43,7.01 -11.21,3.94 -16.75,0.89 -4.41,-2.43 -9.75,-8.23 -11.71,-8.22z"/>
    <path class="fil2" d="M169.63 1550.83l15.46 5.16 0.74 52.85 7.63 2.33 0.25 -51.66 15.81 4.82c0.15,-10.29 2.86,-6.93 -17.04,-13.81 -7.51,-2.6 -14.9,-5.82 -22.39,-7.72l-0.46 8.04z"/>
   </g>
   <path class="fil0" d="M26.08 1295.95c6.9,4.14 34.74,12.2 44.32,15.35l125.35 41.35 192.26 63.43c19.08,6.24 13.34,3.97 42.39,-9.49l122.29 -58.31c39.93,-19.86 84.22,-38.8 122.39,-58.25 12.56,-6.41 29.88,-12.64 41.03,-20.12 -4.97,-4.01 -160.26,-53.97 -178.31,-59.75l-1.62 -0.52c-60.86,-19.16 -121.07,-40.38 -181.75,-60.1 -11.8,-3.83 -10.86,-5.98 -22.15,-0.41 -42.37,20.92 -300.15,141.05 -306.21,146.81z"/>
  </g>
  <path class="fil3" d="M270.93 1314.19c7.86,2.19 16.88,5.18 24.95,7.36 9.76,2.65 14.26,-2.26 23.18,-6.47 22.83,-10.78 127.47,-57.74 133.95,-63.49 -35.03,-11.25 -24.17,-12.83 -48.76,-1.35 -14.81,6.92 -30.01,14.07 -44.83,21 -11.96,5.59 -84.15,38.7 -88.49,42.95z"/>
  <g id="_1647533943456" class="surat-suara surat-loading">
   <path class="fil4" d="M300.32 221.75l121.21 0c4.43,0 8.05,-3.62 8.05,-8.05l0 -185.04 -137.31 0 0 185.04c0,4.43 3.62,8.05 8.05,8.05z"/>
   <polygon class="fil5" points="296.84,156.83 425.01,156.83 425.01,28.66 296.84,28.66 "/>
   <g style="clip-path:url(#id0)">
    <g>
     <path id="1" class="fil6" d="M383.67 84.42c0,7.78 -2.25,14.76 -6.76,20.91 -4.58,6.15 -9.91,9.22 -16.19,9.22 -6.29,0 -11.61,-3.07 -16.2,-9.22 -4.51,-6.15 -6.76,-13.12 -6.76,-20.91 0,-7.59 2.26,-14.14 6.7,-19.54 4.44,-5.4 9.9,-8.13 16.26,-8.13 6.29,0 11.61,2.73 16.19,8.13 4.51,5.4 6.76,11.95 6.76,19.54zm-78.7 89.4l21.31 0 0 -16.64 5.33 0 0 16.64 58.63 0 0 -16.64 5.32 0 0 16.64 21.32 0 0 -30.37c0,-17.35 -9.64,-26.03 -28.9,-26.03l-53.91 0c-19.4,0 -29.1,8.68 -29.1,26.03l0 30.37z"/>
    </g>
   </g>
   <polygon class="fil7" points="296.84,156.83 425.01,156.83 425.01,28.66 296.84,28.66 "/>
   <path class="fil8" d="M292.27 28.66l137.31 0 0 -20.61c0,-4.43 -3.62,-8.05 -8.05,-8.05l-121.21 0c-4.43,0 -8.05,3.62 -8.05,8.05l0 20.61z"/>
   <rect class="fil0" x="311.67" y="10.88" width="98.51" height="6.9" rx="3.45" ry="3.45"/>
   <g>
    <rect class="fil0" x="313.45" y="172.95" width="70.2" height="4.7" rx="2.46" ry="2.35"/>
    <rect class="fil0" x="313.71" y="185.86" width="94.68" height="4.7" rx="3.32" ry="2.35"/>
    <rect class="fil0" x="313.97" y="198.77" width="61.2" height="4.7" rx="2.14" ry="2.35"/>
   </g>
  </g>
  <path class="fil0" d="M388.02 1416.08c19.08,6.24 13.34,3.97 42.39,-9.49l122.29 -58.31c39.93,-19.86 84.22,-38.8 122.39,-58.25 12.56,-6.41 29.88,-12.64 41.03,-20.12 -4.97,-4.01 -160.26,-53.97 -178.31,-59.75 -27.67,13.14 -57.83,27.4 -86.42,40.9l1.62 0.52c-6.48,5.76 -111.12,52.72 -133.95,63.49 -8.92,4.21 -13.43,9.12 -23.18,6.48 -8.22,-2.23 -16.3,-4.94 -24.5,-7.24 -26.65,12.59 -53.95,25.51 -78.75,37.31l195.39 64.47z"/>
 </g>
</svg>
